<svg id="icons" enable-background="new 0 0 64 64" height="512" viewBox="0 0 64 64" width="512"
     xmlns="http://www.w3.org/2000/svg">
    <g>
        <path d="m15.008 64h33.984c.553 0 1-.447 1-1v-3c0-.553-.447-1-1-1h-.994v-.875c.004-.035.021-.065.021-.102 0-6.322-3.689-11.785-9.02-14.39v-13.633h.001c.553 0 1-.448 1-1s-.447-1-1-1h-.001v-1h.001c.553 0 1-.448 1-1s-.447-1-1-1h-.001v-3.87c1.849-1.815 3-4.338 3.001-7.128s0 0 0-.001 0 0 0-.001c-.001-6.203-3.977-11.936-9.667-13.942-.042-.015-.084-.009-.126-.018-.068-.015-.135-.029-.206-.029-.073 0-.141.015-.211.03-.041.009-.082.003-.123.018-5.69 2.005-9.666 7.738-9.667 13.941v.001s0 0 0 .001 0 0 0 0c.001 2.789 1.151 5.311 2.999 7.126v3.872c-.552.001-.999.449-.999 1s.447.999.999 1v1c-.552.001-.999.449-.999 1s.447.999.999 1v13.637c-5.326 2.606-9.012 8.066-9.012 14.386 0 .036.017.066.021.102v.875h-1c-.553 0-1 .447-1 1v3c0 .553.447 1 1 1zm21.991-36h-10v-1h10zm-12.999-13.999c.001-5.246 3.275-10.09 8-11.925 4.725 1.834 7.999 6.679 8 11.925-.001 4.411-3.589 7.999-8 7.999s-7.999-3.588-8-7.999zm8 9.999c1.822 0 3.526-.498 4.999-1.353v2.353h-10v-2.354c1.474.856 3.179 1.354 5.001 1.354zm-5.001 6h10v12.81c-1.574-.519-3.25-.809-4.995-.809-1.749 0-3.429.292-5.005.813zm5.005 14.002c7.699 0 13.965 6.246 14.011 13.938-.003.028-.017.053-.017.081v.979h-27.99v-.979c0-.028-.014-.053-.017-.081.046-7.693 6.313-13.938 14.013-13.938zm-15.996 16.998h31.984v1h-31.984z"/>
    </g>
</svg>
