<svg display="none" xmlns="http://www.w3.org/2000/svg">
    <symbol id="pawn" viewBox="0 0 536.124 536.125">
        <g>
            <g>
                <path d="M256,0c-52.928,0-96,43.072-96,96s43.072,96,96,96s96-43.072,96-96S308.928,0,256,0z M256,170.667
			c-41.173,0-74.667-33.493-74.667-74.667S214.827,21.333,256,21.333S330.667,54.827,330.667,96S297.173,170.667,256,170.667z"/>
            </g>
        </g>
        <g>
            <g>
                <path d="M256,42.667c-29.419,0-53.333,23.936-53.333,53.333c0,5.888,4.779,10.667,10.667,10.667S224,101.888,224,96
			c0-17.643,14.357-32,32-32c5.888,0,10.667-4.779,10.667-10.667S261.888,42.667,256,42.667z"/>
            </g>
        </g>
        <g>
            <g>
                <path d="M350.976,176.768c-1.707-3.627-9.792-16-42.219-22.805c-5.675-1.173-11.392,2.475-12.629,8.256
			c-1.195,5.76,2.475,11.413,8.256,12.629c16.683,3.52,23.851,8.277,26.283,10.219v12.395c-7.467,4.907-29.227,15.872-74.667,15.872
			c-45.589,0-67.328-11.029-74.667-15.851v-12.245c2.752-2.304,9.963-6.976,26.283-10.368c5.781-1.216,9.472-6.869,8.256-12.629
			c-1.237-5.781-6.933-9.451-12.629-8.256c-32.405,6.805-40.512,19.179-42.219,22.805c-0.661,1.429-1.024,2.965-1.024,4.544v21.333
			c0,2.752,1.067,5.397,2.965,7.381c2.411,2.517,25.536,24.619,93.035,24.619s90.624-22.101,93.035-24.619
			c1.899-1.984,2.965-4.629,2.965-7.381v-21.333C352,179.755,351.637,178.219,350.976,176.768z"/>
            </g>
        </g>
        <g>
            <g>
                <path d="M371.563,410.133c-0.619-0.96-62.229-95.275-62.229-186.133c0-5.888-4.779-10.667-10.667-10.667S288,218.112,288,224
			c0,80.597,43.392,160.811,59.733,188.16c-12.523,5.611-40.427,14.507-91.733,14.507c-51.371,0-79.296-8.896-91.733-14.485
			C180.608,384.853,224,304.619,224,224c0-5.888-4.779-10.667-10.667-10.667s-10.667,4.779-10.667,10.667
			c0,90.688-61.611,185.173-62.229,186.112c-2.987,4.544-2.091,10.624,2.112,14.101C145.472,426.645,173.653,448,256,448
			s110.528-21.355,113.451-23.765C373.675,420.757,374.571,414.677,371.563,410.133z"/>
            </g>
        </g>
        <g>
            <g>
                <path d="M354.581,373.675c-5.781-1.515-11.499,2.027-12.928,7.744s2.027,11.499,7.765,12.928
			c23.68,5.952,44.117,16.768,45.248,21.653v38.613c-8.299,8.128-43.648,36.053-138.667,36.053
			c-95.275,0-130.56-28.053-138.667-36.032l-0.021-38.528c1.152-4.992,21.589-15.829,45.269-21.781
			c5.717-1.408,9.173-7.211,7.765-12.928c-1.451-5.717-7.317-9.259-12.928-7.744C138.944,378.261,96,391.637,96,416v42.667
			c0,2.197,0.683,4.352,1.941,6.144C99.285,466.731,132.544,512,256,512s156.715-45.269,158.059-47.168
			c1.259-1.792,1.941-3.947,1.941-6.144v-42.667C416,391.659,373.056,378.283,354.581,373.675z"/>
            </g>
        </g>

    </symbol>
    <symbol id="rook" viewBox="0 0 512 512">
        <g>
            <g>
                <path d="M400.906,444.377H111.094c-15.978,0-28.981,13.003-28.981,28.981v9.66c0,15.978,13.003,28.981,28.981,28.981h289.811
			c15.978,0,28.981-13.003,28.981-28.981v-9.66C429.887,457.38,416.884,444.377,400.906,444.377z M410.566,483.019
			c0,5.323-4.328,9.66-9.66,9.66H111.094c-5.323,0-9.66-4.338-9.66-9.66v-9.66c0-5.323,4.338-9.66,9.66-9.66h289.811
			c5.333,0,9.66,4.338,9.66,9.66V483.019z"/>
            </g>
        </g>
        <g>
            <g>
                <path d="M352.604,405.736H159.396c-15.978,0-28.981,13.003-28.981,28.981s13.003,28.981,28.981,28.981h193.208
			c15.978,0,28.981-13.003,28.981-28.981S368.582,405.736,352.604,405.736z M352.604,444.377H159.396c-5.323,0-9.66-4.338-9.66-9.66
			s4.338-9.66,9.66-9.66h193.208c5.333,0,9.66,4.338,9.66,9.66S357.936,444.377,352.604,444.377z"/>
            </g>
        </g>
        <g>
            <g>
                <path d="M352.604,164.226H159.396c-15.978,0-28.981,13.003-28.981,28.981c0,15.978,13.003,28.981,28.981,28.981h193.208
			c15.978,0,28.981-13.003,28.981-28.981C381.585,177.229,368.582,164.226,352.604,164.226z M352.604,202.868H159.396
			c-5.323,0-9.66-4.338-9.66-9.66c0-5.323,4.338-9.66,9.66-9.66h193.208c5.333,0,9.66,4.338,9.66,9.66
			C362.264,198.53,357.936,202.868,352.604,202.868z"/>
            </g>
        </g>
        <g>
            <g>
                <path d="M313.962,125.585H198.038c-5.333,0-9.66,4.328-9.66,9.66v38.641c0,5.333,4.328,9.66,9.66,9.66h115.924
			c5.333,0,9.66-4.328,9.66-9.66v-38.641C323.623,129.913,319.295,125.585,313.962,125.585z M304.302,164.226h-96.604v-19.321
			h96.604V164.226z"/>
            </g>
        </g>
        <g>
            <g>
                <path d="M341.127,286.421c-5.13-13.679-7.844-36.429-7.844-65.797v-8.095c0-5.333-4.328-9.66-9.66-9.66H188.377
			c-5.333,0-9.66,4.328-9.66,9.66v8.095c0,29.368-2.705,52.118-7.835,65.797c-7.622,20.325-11.486,41.491-11.486,62.918v66.058
			c0,5.333,4.328,9.66,9.66,9.66h173.887c5.333,0,9.66-4.328,9.66-9.66v-66.058C352.604,327.912,348.749,306.746,341.127,286.421z
			 M333.283,405.736H178.717l0.01-56.397c0-19.108,3.458-37.994,10.259-56.136c5.912-15.785,8.965-39.675,9.061-71.013h115.924
			c0.087,31.338,3.14,55.228,9.061,71.013c6.801,18.142,10.25,37.028,10.25,56.136V405.736z"/>
            </g>
        </g>
        <g>
            <g>
                <path d="M362.264,0h-38.641c-5.333,0-9.66,4.328-9.66,9.66v28.981h-28.981V9.66c0-5.333-4.328-9.66-9.66-9.66h-38.642
			c-5.333,0-9.66,4.328-9.66,9.66v28.981h-28.981V9.66c0-5.333-4.328-9.66-9.66-9.66h-38.642c-5.333,0-9.66,4.328-9.66,9.66v77.283
			c0,2.56,1.014,5.014,2.831,6.83l48.302,48.302c1.806,1.816,4.27,2.83,6.83,2.83h115.924c2.56,0,5.014-1.014,6.83-2.83
			l48.302-48.302c1.816-1.806,2.831-4.27,2.831-6.83V9.66C371.925,4.328,367.597,0,362.264,0z M352.594,82.944l-42.641,42.641
			H202.037l-42.651-42.641V19.321h19.321v28.981c0,5.333,4.328,9.66,9.66,9.66h48.302c5.333,0,9.66-4.328,9.66-9.66V19.321h19.321
			v28.981c0,5.333,4.328,9.66,9.66,9.66h48.302c5.333,0,9.66-4.328,9.66-9.66V19.321h19.321V82.944z"/>
            </g>
        </g>
    </symbol>
    <symbol id="horse" viewBox="0 0 298 298">
        <g>
            <path d="M210.952,116c14.912,0,27.037-12.088,27.037-27s-10.945-25.013-26.964-30.666c-11.333-4-18.018-10.823-23.009-19.412
		C183.025,30.333,172.025,17,157.525,17c-5.832,0-19.798,0-19.798,0V0c-107,40.03-72.369,184-72.369,184h21.369v14h-6.369
		c-4.418,0-8.631,3.582-8.631,8v1c0,3.289,2.302,6.111,5.14,7.341c-8.77,15.05-1.419,29.775,0.761,33.659h-5.271
		c-4.418,0-8.631,3.582-8.631,8v18c0,4.418,4,8,8,8v16h132v-16.069c4-0.493,7-3.853,7-7.931v-18c0-4.418-2.951-8-7.369-8h-4.27
		c2.181-3.884,8.902-18.609,0.13-33.659c2.838-1.23,4.508-4.052,4.508-7.341v-1c0-4.418-2.951-8-7.369-8h-7.631v-14h24.132
		c-16.501-54-66.334-83-66.334-83h40.182C191.146,109.889,200.351,116,210.952,116z"/>
        </g>
    </symbol>
    <symbol id="elephant" viewBox="0 0 64 64">
        <g>
            <path d="m15.008 64h33.984c.553 0 1-.447 1-1v-3c0-.553-.447-1-1-1h-.994v-.875c.004-.035.021-.065.021-.102 0-6.322-3.689-11.785-9.02-14.39v-13.633h.001c.553 0 1-.448 1-1s-.447-1-1-1h-.001v-1h.001c.553 0 1-.448 1-1s-.447-1-1-1h-.001v-3.87c1.849-1.815 3-4.338 3.001-7.128s0 0 0-.001 0 0 0-.001c-.001-6.203-3.977-11.936-9.667-13.942-.042-.015-.084-.009-.126-.018-.068-.015-.135-.029-.206-.029-.073 0-.141.015-.211.03-.041.009-.082.003-.123.018-5.69 2.005-9.666 7.738-9.667 13.941v.001s0 0 0 .001 0 0 0 0c.001 2.789 1.151 5.311 2.999 7.126v3.872c-.552.001-.999.449-.999 1s.447.999.999 1v1c-.552.001-.999.449-.999 1s.447.999.999 1v13.637c-5.326 2.606-9.012 8.066-9.012 14.386 0 .036.017.066.021.102v.875h-1c-.553 0-1 .447-1 1v3c0 .553.447 1 1 1zm21.991-36h-10v-1h10zm-12.999-13.999c.001-5.246 3.275-10.09 8-11.925 4.725 1.834 7.999 6.679 8 11.925-.001 4.411-3.589 7.999-8 7.999s-7.999-3.588-8-7.999zm8 9.999c1.822 0 3.526-.498 4.999-1.353v2.353h-10v-2.354c1.474.856 3.179 1.354 5.001 1.354zm-5.001 6h10v12.81c-1.574-.519-3.25-.809-4.995-.809-1.749 0-3.429.292-5.005.813zm5.005 14.002c7.699 0 13.965 6.246 14.011 13.938-.003.028-.017.053-.017.081v.979h-27.99v-.979c0-.028-.014-.053-.017-.081.046-7.693 6.313-13.938 14.013-13.938zm-15.996 16.998h31.984v1h-31.984z"/>
        </g>
    </symbol>
    <symbol id="queen" viewBox="0 0 511.999 511.999">
        <g>
            <path d="M343.626,257v-47.684l39.976-85.994c2.498-5.375,1.598-11.716-2.298-16.182c-3.895-4.466-10.059-6.221-15.721-4.476
			l-26.471,8.152c-7.787-23.327-25.038-42.076-46.995-52.021c2.798-5.5,4.386-11.714,4.386-18.295c0-22.332-18.169-40.5-40.503-40.5
			c-22.334,0-40.503,18.168-40.503,40.5c0,6.583,1.589,12.798,4.388,18.298c-22.63,10.238-39.38,29.286-46.988,52.02l-26.479-8.154
			c-5.668-1.745-11.826,0.009-15.722,4.476c-3.896,4.466-4.796,10.808-2.298,16.182l39.976,85.994V257c0,8.284,6.716,15,15.001,15
			h10.894L182.39,411h-12.639c-6.451,0-12.179,4.124-14.226,10.24l-23.76,71c-1.531,4.575-0.768,9.608,2.051,13.523
			c2.82,3.916,7.349,6.236,12.175,6.236h220.016c4.826,0,9.355-2.321,12.175-6.236c2.819-3.916,3.582-8.948,2.051-13.523l-23.76-71
			c-2.047-6.117-7.775-10.24-14.226-10.24h-12.639L317.73,272h10.894C336.91,272,343.626,265.284,343.626,257z M255.999,30
			c5.791,0,10.501,4.71,10.501,10.5S261.79,51,255.999,51c-5.79,0-10.501-4.71-10.501-10.5S250.208,30,255.999,30z M255.999,81
			c24.946,0,46.553,15.946,54.445,38.644l-10.019,3.085l-37.635-19.104c-4.268-2.167-9.313-2.167-13.581,0l-37.636,19.104
			l-10.011-3.083C209.458,97.011,230.977,81,255.999,81z M331.449,441l13.72,41h-178.34l13.72-41
			C215.292,441,298.947,441,331.449,441z M198.374,242v-21h115.249v21C300.712,242,212.713,242,198.374,242z M299.497,411H212.5
			l11.879-139h63.239L299.497,411z M192.944,191l-23.121-49.735c10.562,3.252,32.468,9.996,38.718,11.921
			c3.719,1.145,7.736,0.8,11.205-0.961l36.253-18.403l36.253,18.403c3.418,1.735,7.552,2.085,11.205,0.961
			c5.229-1.61,28.493-8.773,38.719-11.921L319.054,191H192.944z"/>
        </g>
    </symbol>
    <symbol id="king" viewBox="0 0 470 470">
        <path d="M346.5,415h-6.426l-5.639-21.113c-3.14-11.754-13.733-21.361-25.627-24.101l-14.079-122.871
	c8.347-3.292,14.271-11.432,14.271-20.935c0-9.777-6.271-18.114-15-21.21v-33.39l5.697-53.197
	c0.797-7.434-1.423-14.485-6.249-19.856C288.622,92.958,281.847,90,274.37,90H257.5v-7.5c0-4.136,3.364-7.5,7.5-7.5h15
	c4.143,0,7.5-3.358,7.5-7.5v-30c0-4.142-3.357-7.5-7.5-7.5h-15c-4.136,0-7.5-3.364-7.5-7.5v-15c0-4.142-3.357-7.5-7.5-7.5h-30
	c-4.143,0-7.5,3.358-7.5,7.5v15c0,4.136-3.364,7.5-7.5,7.5h-15c-4.143,0-7.5,3.358-7.5,7.5v30c0,4.142,3.357,7.5,7.5,7.5h15
	c4.136,0,7.5,3.364,7.5,7.5V90h-16.87c-7.476,0-14.251,2.958-19.077,8.328s-7.046,12.422-6.25,19.857L176,171.382v33.39
	c-8.729,3.096-15,11.433-15,21.21c0,9.503,5.925,17.642,14.271,20.935l-14.078,122.871c-11.894,2.739-22.488,12.347-25.627,24.101
	L129.927,415H123.5c-4.143,0-7.5,3.358-7.5,7.5v40c0,4.142,3.357,7.5,7.5,7.5h223c4.143,0,7.5-3.358,7.5-7.5v-40
	C354,418.358,350.643,415,346.5,415z M279.81,248.481L293.62,369H176.381l13.809-120.519H279.81z M205,60h-7.5V45h7.5
	c12.406,0,22.5-10.093,22.5-22.5V15h15v7.5c0,12.407,10.094,22.5,22.5,22.5h7.5v15H265c-12.406,0-22.5,10.093-22.5,22.5V90h-15v-7.5
	C227.5,70.093,217.406,60,205,60z M187.71,108.354c1.943-2.163,4.756-3.354,7.92-3.354h78.74c3.164,0,5.978,1.191,7.921,3.355
	c1.944,2.163,2.829,5.086,2.492,8.232l-5.022,46.894H213.5c-4.143,0-7.5,3.358-7.5,7.5s3.357,7.5,7.5,7.5H279v25h-88v-32.5
	c0-0.267-0.015-0.533-0.043-0.799l-5.74-53.595C184.88,113.441,185.766,110.518,187.71,108.354z M183.5,218.481h103
	c4.136,0,7.5,3.364,7.5,7.5s-3.364,7.5-7.5,7.5H183.59c-0.01,0-0.09,0-0.09,0c-4.136,0-7.5-3.364-7.5-7.5
	S179.364,218.481,183.5,218.481z M339,455H131v-25h143.314c4.143,0,7.5-3.358,7.5-7.5s-3.357-7.5-7.5-7.5H145.453l4.605-17.242
	c1.958-7.329,10.329-13.758,17.915-13.758c0.02,0,134.035,0,134.035,0c7.606,0,15.977,6.429,17.935,13.758L324.548,415h-20.234
	c-4.143,0-7.5,3.358-7.5,7.5s3.357,7.5,7.5,7.5h29.972c0.053,0,4.714,0,4.714,0V455z"/>
    </symbol>
</svg>
